<svg width="412" height="87" viewBox="0 0 412 87" fill="none" xmlns="http://www.w3.org/2000/svg">
<path fill-rule="evenodd" clip-rule="evenodd" d="M43.25 0L0 43.25L43.25 86.5L86.5 43.25L43.25 0Z" fill="#3C49CB"/>
<rect x="14.0833" y="43.6251" width="17.8544" height="17.8544" transform="rotate(-45 14.0833 43.6251)" fill="white"/>
<rect x="47.3333" y="43.625" width="17.8544" height="17.8544" transform="rotate(-45 47.3333 43.625)" fill="white"/>
<path d="M99.96 65.75V23.75H118.2C121 23.75 123.36 24.17 125.28 25.01C127.24 25.81 128.72 26.99 129.72 28.55C130.72 30.11 131.22 31.97 131.22 34.13C131.22 36.53 130.62 38.53 129.42 40.13C128.22 41.73 126.5 42.83 124.26 43.43L124.2 42.23C126.04 42.67 127.66 43.39 129.06 44.39C130.46 45.39 131.54 46.63 132.3 48.11C133.06 49.59 133.44 51.27 133.44 53.15C133.44 55.23 133.1 57.07 132.42 58.67C131.74 60.23 130.74 61.53 129.42 62.57C128.1 63.61 126.54 64.41 124.74 64.97C122.98 65.49 121 65.75 118.8 65.75H99.96ZM108.6 57.95H118.44C119.72 57.95 120.8 57.77 121.68 57.41C122.6 57.01 123.3 56.41 123.78 55.61C124.26 54.81 124.5 53.87 124.5 52.79C124.5 51.75 124.24 50.87 123.72 50.15C123.2 49.43 122.46 48.89 121.5 48.53C120.58 48.13 119.46 47.93 118.14 47.93H108.6V57.95ZM108.6 40.79H117.12C118.2 40.79 119.14 40.59 119.94 40.19C120.74 39.79 121.34 39.25 121.74 38.57C122.18 37.89 122.4 37.09 122.4 36.17C122.4 34.69 121.92 33.55 120.96 32.75C120 31.95 118.56 31.55 116.64 31.55H108.6V40.79ZM155.122 66.35C151.882 66.35 148.982 65.65 146.422 64.25C143.902 62.81 141.902 60.85 140.422 58.37C138.982 55.89 138.262 53.05 138.262 49.85C138.262 46.65 138.982 43.83 140.422 41.39C141.902 38.91 143.902 36.95 146.422 35.51C148.982 34.07 151.882 33.35 155.122 33.35C158.322 33.35 161.182 34.07 163.702 35.51C166.262 36.95 168.262 38.91 169.702 41.39C171.142 43.83 171.862 46.65 171.862 49.85C171.862 53.05 171.142 55.89 169.702 58.37C168.262 60.85 166.262 62.81 163.702 64.25C161.182 65.65 158.322 66.35 155.122 66.35ZM155.122 58.91C156.682 58.91 158.082 58.53 159.322 57.77C160.562 56.97 161.522 55.89 162.202 54.53C162.922 53.13 163.282 51.57 163.282 49.85C163.282 48.09 162.922 46.53 162.202 45.17C161.522 43.77 160.562 42.69 159.322 41.93C158.082 41.13 156.682 40.73 155.122 40.73C153.522 40.73 152.102 41.13 150.862 41.93C149.622 42.73 148.642 43.81 147.922 45.17C147.202 46.53 146.862 48.09 146.902 49.85C146.862 51.57 147.202 53.13 147.922 54.53C148.642 55.89 149.622 56.97 150.862 57.77C152.102 58.53 153.522 58.91 155.122 58.91ZM181.332 65.75V25.97H189.852V65.75H181.332ZM175.392 41.63V34.01H196.332V41.63H175.392ZM216.705 66.35C214.105 66.35 211.725 66.03 209.565 65.39C207.445 64.75 205.545 63.81 203.865 62.57C202.225 61.33 200.745 59.83 199.425 58.07L205.065 51.65C207.025 54.37 208.965 56.23 210.885 57.23C212.845 58.19 214.965 58.67 217.245 58.67C218.485 58.67 219.585 58.51 220.545 58.19C221.545 57.83 222.325 57.33 222.885 56.69C223.445 56.05 223.725 55.29 223.725 54.41C223.725 53.77 223.585 53.19 223.305 52.67C223.025 52.11 222.625 51.63 222.105 51.23C221.585 50.79 220.965 50.41 220.245 50.09C219.525 49.73 218.725 49.43 217.845 49.19C216.965 48.91 216.005 48.69 214.965 48.53C212.725 48.01 210.765 47.39 209.085 46.67C207.405 45.91 206.005 44.99 204.885 43.91C203.765 42.79 202.925 41.53 202.365 40.13C201.845 38.73 201.585 37.15 201.585 35.39C201.585 33.59 201.985 31.93 202.785 30.41C203.585 28.85 204.685 27.51 206.085 26.39C207.525 25.27 209.165 24.41 211.005 23.81C212.885 23.21 214.865 22.91 216.945 22.91C219.505 22.91 221.745 23.21 223.665 23.81C225.585 24.37 227.245 25.19 228.645 26.27C230.085 27.35 231.285 28.67 232.245 30.23L226.545 35.75C225.705 34.63 224.785 33.69 223.785 32.93C222.825 32.17 221.765 31.61 220.605 31.25C219.485 30.85 218.325 30.65 217.125 30.65C215.805 30.65 214.665 30.83 213.705 31.19C212.745 31.51 211.985 31.99 211.425 32.63C210.905 33.27 210.645 34.05 210.645 34.97C210.645 35.69 210.825 36.33 211.185 36.89C211.545 37.45 212.065 37.95 212.745 38.39C213.425 38.79 214.245 39.15 215.205 39.47C216.165 39.79 217.225 40.07 218.385 40.31C220.585 40.75 222.565 41.33 224.325 42.05C226.085 42.77 227.585 43.65 228.825 44.69C230.105 45.69 231.085 46.89 231.765 48.29C232.445 49.65 232.785 51.19 232.785 52.91C232.785 55.75 232.105 58.17 230.745 60.17C229.385 62.17 227.505 63.71 225.105 64.79C222.705 65.83 219.905 66.35 216.705 66.35ZM261.637 78.95V58.13L263.377 58.43C263.297 59.43 262.917 60.41 262.237 61.37C261.597 62.29 260.737 63.13 259.657 63.89C258.617 64.65 257.457 65.25 256.177 65.69C254.897 66.13 253.557 66.35 252.157 66.35C249.357 66.35 246.857 65.65 244.657 64.25C242.497 62.81 240.777 60.85 239.497 58.37C238.257 55.89 237.637 53.05 237.637 49.85C237.637 46.65 238.257 43.81 239.497 41.33C240.737 38.85 242.437 36.91 244.597 35.51C246.757 34.07 249.217 33.35 251.977 33.35C253.497 33.35 254.937 33.59 256.297 34.07C257.697 34.51 258.937 35.11 260.017 35.87C261.097 36.63 261.977 37.49 262.657 38.45C263.337 39.41 263.717 40.41 263.797 41.45L261.757 41.75L261.997 34.01H270.157V78.95H261.637ZM253.897 58.97C255.497 58.97 256.897 58.59 258.097 57.83C259.297 57.07 260.217 56.01 260.857 54.65C261.537 53.29 261.877 51.69 261.877 49.85C261.877 48.01 261.537 46.41 260.857 45.05C260.217 43.65 259.297 42.57 258.097 41.81C256.897 41.05 255.497 40.67 253.897 40.67C252.297 40.67 250.897 41.07 249.697 41.87C248.497 42.63 247.557 43.71 246.877 45.11C246.237 46.47 245.917 48.05 245.917 49.85C245.917 51.65 246.237 53.25 246.877 54.65C247.557 56.01 248.497 57.07 249.697 57.83C250.897 58.59 252.297 58.97 253.897 58.97ZM289.621 66.35C287.301 66.35 285.301 65.85 283.621 64.85C281.981 63.81 280.701 62.35 279.781 60.47C278.901 58.55 278.461 56.25 278.461 53.57V34.01H286.981V52.19C286.981 53.63 287.221 54.89 287.701 55.97C288.181 57.01 288.861 57.81 289.741 58.37C290.621 58.93 291.701 59.21 292.981 59.21C293.901 59.21 294.761 59.07 295.561 58.79C296.361 58.47 297.041 58.03 297.601 57.47C298.161 56.91 298.601 56.25 298.921 55.49C299.241 54.73 299.401 53.91 299.401 53.03V34.01H307.921V65.75H299.821L299.521 59.21L301.081 58.49C300.601 59.97 299.801 61.31 298.681 62.51C297.561 63.71 296.221 64.65 294.661 65.33C293.101 66.01 291.421 66.35 289.621 66.35ZM328.374 66.35C325.734 66.35 323.354 65.63 321.234 64.19C319.114 62.75 317.434 60.79 316.194 58.31C314.954 55.83 314.334 52.99 314.334 49.79C314.334 46.59 314.954 43.77 316.194 41.33C317.474 38.85 319.194 36.91 321.354 35.51C323.514 34.07 325.974 33.35 328.734 33.35C330.294 33.35 331.714 33.59 332.994 34.07C334.314 34.51 335.454 35.13 336.414 35.93C337.414 36.73 338.254 37.65 338.934 38.69C339.614 39.73 340.094 40.85 340.374 42.05L338.574 41.75V34.01H347.034V65.75H338.454V58.13L340.374 57.95C340.054 59.07 339.534 60.13 338.814 61.13C338.094 62.13 337.194 63.03 336.114 63.83C335.074 64.59 333.894 65.21 332.574 65.69C331.254 66.13 329.854 66.35 328.374 66.35ZM330.714 58.97C332.314 58.97 333.714 58.59 334.914 57.83C336.114 57.07 337.034 56.01 337.674 54.65C338.354 53.25 338.694 51.63 338.694 49.79C338.694 47.99 338.354 46.41 337.674 45.05C337.034 43.69 336.114 42.63 334.914 41.87C333.714 41.07 332.314 40.67 330.714 40.67C329.154 40.67 327.774 41.07 326.574 41.87C325.414 42.63 324.494 43.69 323.814 45.05C323.134 46.41 322.794 47.99 322.794 49.79C322.794 51.63 323.134 53.25 323.814 54.65C324.494 56.01 325.414 57.07 326.574 57.83C327.774 58.59 329.154 58.97 330.714 58.97ZM355.576 65.75V34.01H363.796L364.096 44.21L362.656 42.11C363.136 40.47 363.916 38.99 364.996 37.67C366.076 36.31 367.336 35.25 368.776 34.49C370.256 33.73 371.796 33.35 373.396 33.35C374.076 33.35 374.736 33.41 375.376 33.53C376.016 33.65 376.556 33.79 376.996 33.95L374.716 43.31C374.236 43.07 373.656 42.87 372.976 42.71C372.296 42.51 371.596 42.41 370.876 42.41C369.916 42.41 369.016 42.59 368.176 42.95C367.376 43.27 366.676 43.75 366.076 44.39C365.476 44.99 364.996 45.71 364.636 46.55C364.316 47.39 364.156 48.31 364.156 49.31V65.75H355.576ZM395.597 66.35C392.157 66.35 389.157 65.65 386.597 64.25C384.037 62.85 382.037 60.93 380.597 58.49C379.157 56.05 378.437 53.25 378.437 50.09C378.437 47.65 378.837 45.41 379.637 43.37C380.437 41.33 381.557 39.57 382.997 38.09C384.437 36.57 386.137 35.41 388.097 34.61C390.097 33.77 392.257 33.35 394.577 33.35C396.737 33.35 398.737 33.75 400.577 34.55C402.417 35.31 403.997 36.41 405.317 37.85C406.677 39.25 407.717 40.91 408.437 42.83C409.157 44.75 409.477 46.85 409.397 49.13L409.337 51.77H383.837L382.457 46.55H402.317L401.357 47.63V46.31C401.277 45.23 400.917 44.25 400.277 43.37C399.677 42.49 398.897 41.81 397.937 41.33C396.977 40.85 395.897 40.61 394.697 40.61C392.937 40.61 391.437 40.95 390.197 41.63C388.997 42.31 388.077 43.31 387.437 44.63C386.797 45.95 386.477 47.55 386.477 49.43C386.477 51.35 386.877 53.01 387.677 54.41C388.517 55.81 389.677 56.91 391.157 57.71C392.677 58.47 394.457 58.85 396.497 58.85C397.897 58.85 399.177 58.63 400.337 58.19C401.497 57.75 402.737 56.99 404.057 55.91L408.137 61.61C406.977 62.65 405.697 63.53 404.297 64.25C402.897 64.93 401.457 65.45 399.977 65.81C398.497 66.17 397.037 66.35 395.597 66.35Z" fill="#3C49CB"/>
</svg>
